<svg width="20" height="20" viewBox="0 0 20 20" fill="none" xmlns="http://www.w3.org/2000/svg">
<path d="M8.3207 11.3636L5.97853 9.02147C5.70076 8.74369 5.2504 8.74369 4.97263 9.02147L3.84469 10.1494C3.56692 10.4272 3.56692 10.8775 3.84469 11.1553L7.81775 15.1284C8.09553 15.4061 8.54588 15.4061 8.82366 15.1284L17.0644 6.88763C17.3422 6.60985 17.3422 6.1595 17.0644 5.88172L15.9365 4.75378C15.6587 4.47601 15.2083 4.47601 14.9306 4.75378L8.3207 11.3636Z" fill="#727273"/>
<path fill-rule="evenodd" clip-rule="evenodd" d="M0 2.72727C0 1.22104 1.22104 0 2.72727 0H17.2727C18.779 0 20 1.22104 20 2.72727V17.2727C20 18.779 18.779 20 17.2727 20H2.72727C1.22104 20 0 18.779 0 17.2727V2.72727ZM2.72727 1.81818H17.2727C17.7748 1.81818 18.1818 2.2252 18.1818 2.72727V17.2727C18.1818 17.7748 17.7748 18.1818 17.2727 18.1818H2.72727C2.2252 18.1818 1.81818 17.7748 1.81818 17.2727V2.72727C1.81818 2.2252 2.2252 1.81818 2.72727 1.81818Z" fill="#727273"/>
</svg>
