<svg width="17" height="21" viewBox="0 0 17 21" fill="none" xmlns="http://www.w3.org/2000/svg">
<path d="M14.1667 1.88889H13.0569C12.6792 0.779167 11.6167 0 10.3889 0H6.61111C5.38333 0 4.32083 0.779167 3.94306 1.88889H2.83333C1.275 1.88889 0 3.16389 0 4.72222V17.9444C0 19.5028 1.275 20.7778 2.83333 20.7778H14.1667C15.725 20.7778 17 19.5028 17 17.9444V4.72222C17 3.16389 15.725 1.88889 14.1667 1.88889ZM6.61111 1.88889H10.3889C10.9083 1.88889 11.3333 2.31389 11.3333 2.83333C11.3333 3.35278 10.9083 3.77778 10.3889 3.77778H6.61111C6.09167 3.77778 5.66667 3.35278 5.66667 2.83333C5.66667 2.31389 6.09167 1.88889 6.61111 1.88889ZM15.1111 17.9444C15.1111 18.4639 14.6861 18.8889 14.1667 18.8889H2.83333C2.31389 18.8889 1.88889 18.4639 1.88889 17.9444V4.72222C1.88889 4.20278 2.31389 3.77778 2.83333 3.77778H3.94306C4.32083 4.8875 5.38333 5.66667 6.61111 5.66667H10.3889C11.6167 5.66667 12.6792 4.8875 13.0569 3.77778H14.1667C14.6861 3.77778 15.1111 4.20278 15.1111 4.72222V17.9444Z" fill="white"/>
<path d="M12.2778 9.44446H4.72222C4.20277 9.44446 3.77777 9.01946 3.77777 8.50002C3.77777 7.98057 4.20277 7.55557 4.72222 7.55557H12.2778C12.7972 7.55557 13.2222 7.98057 13.2222 8.50002C13.2222 9.01946 12.7972 9.44446 12.2778 9.44446Z" fill="white"/>
<path d="M12.2778 13.2222H4.72222C4.20277 13.2222 3.77777 12.7972 3.77777 12.2778C3.77777 11.7583 4.20277 11.3333 4.72222 11.3333H12.2778C12.7972 11.3333 13.2222 11.7583 13.2222 12.2778C13.2222 12.7972 12.7972 13.2222 12.2778 13.2222Z" fill="white"/>
<path d="M12.2778 17H4.72222C4.20277 17 3.77777 16.575 3.77777 16.0555C3.77777 15.5361 4.20277 15.1111 4.72222 15.1111H12.2778C12.7972 15.1111 13.2222 15.5361 13.2222 16.0555C13.2222 16.575 12.7972 17 12.2778 17Z" fill="white"/>
</svg>
