<svg width="20" height="20" viewBox="0 0 20 20" fill="none" xmlns="http://www.w3.org/2000/svg">
<path fill-rule="evenodd" clip-rule="evenodd" d="M7.91238 5.54838C7.91238 6.86451 6.8299 7.92258 5.54124 7.92258C4.25258 7.92258 3.19588 6.83871 3.19588 5.54838C3.19588 4.25806 4.22681 3.17419 5.54124 3.17419C6.85568 3.17419 7.91238 4.23226 7.91238 5.54838ZM6.52063 5.57419C6.52063 5.03225 6.08249 4.59354 5.54124 4.59354C5.02577 4.59354 4.56186 5.03225 4.56186 5.57419C4.56186 6.11612 5.00001 6.55484 5.54124 6.55484C6.08249 6.55484 6.52063 6.11612 6.52063 5.57419Z" fill="#727273"/>
<path fill-rule="evenodd" clip-rule="evenodd" d="M2.75774 0H17.1907C18.7371 0 19.9742 1.23871 20 2.76129V17.2129C20 18.7613 18.7371 20 17.2165 20H2.7835C1.23711 20 0 18.7613 0 17.2387V2.7871C0 1.23871 1.23711 0 2.75774 0ZM17.2165 1.65161H2.7835C2.16496 1.65161 1.67526 2.16774 1.67526 2.7871V12.8774L5.15464 9.49677C5.43814 9.21291 5.87629 9.23871 6.13402 9.49677L9.38145 12.7742L15.9794 6.19355C16.2371 5.90968 16.6495 5.90968 16.933 6.16774L18.3247 7.45806V2.76129C18.3247 2.14194 17.8351 1.65161 17.2165 1.65161ZM2.75774 18.3226H17.1907C17.8093 18.3226 18.3247 17.8323 18.3247 17.2129V9.36774L16.4691 7.63871L9.87113 14.2452C9.6134 14.529 9.17525 14.529 8.89176 14.2452L5.61856 10.9677L1.64949 14.8129V17.2129C1.64949 17.8323 2.13917 18.3226 2.75774 18.3226Z" fill="#727273"/>
</svg>
