<svg width="17" height="19" viewBox="0 0 17 19" fill="none" xmlns="http://www.w3.org/2000/svg">
<path d="M16.8627 6.95413L15.0263 4.41711L16.8627 1.82016C17.0613 1.54048 17.0364 1.20088 16.7883 0.941187C16.5401 0.681492 16.143 0.561632 15.7708 0.641539C14.1825 0.941187 13.0162 0.701468 11.6761 0.421797C10.2615 0.122148 8.67324 -0.217453 6.61346 0.182078C6.16676 0.261984 5.84415 0.581609 5.84415 0.961164V16.5029C3.85882 16.5828 2.02239 16.9224 0.583023 17.4618C0.0866901 17.6416 -0.13666 18.121 0.0866901 18.5206C0.31004 18.9201 0.905639 19.0999 1.40197 18.9201C2.81652 18.4007 4.80185 18.1011 6.83681 18.1011C8.87177 18.1011 10.8571 18.4007 12.2717 18.9201C12.3957 18.98 12.5446 19 12.6935 19C13.0658 19 13.438 18.8202 13.5869 18.5405C13.8103 18.141 13.6118 17.6616 13.0906 17.4818C11.6512 16.9424 9.78999 16.6028 7.82948 16.5229V7.57341C9.07031 7.47352 10.1126 7.69326 11.1797 7.91301C12.5695 8.21266 14.1577 8.53228 16.2175 8.13275C16.5153 8.07282 16.7883 7.89303 16.9124 7.67329C17.0364 7.45355 17.0364 7.17387 16.8627 6.95413Z" fill="white"/>
</svg>
