<svg width="17" height="17" viewBox="0 0 17 17" fill="none" xmlns="http://www.w3.org/2000/svg">
<path d="M8.48938 8.5C10.8337 8.5 12.7341 6.59721 12.7341 4.25C12.7341 1.90279 10.8337 0 8.48938 0C6.1451 0 4.24469 1.90279 4.24469 4.25C4.24469 6.59721 6.1451 8.5 8.48938 8.5Z" fill="white"/>
<path d="M15.7478 12.0913C16.1175 12.2613 16.4306 12.5343 16.6498 12.8775C16.8715 13.2196 16.9929 13.6172 17 14.025V16.4581V17H16.4588H0.541198H0V16.4581V14.025C0.000777619 13.6193 0.114712 13.2219 0.328964 12.8775C0.54814 12.5343 0.861238 12.2613 1.23096 12.0913C3.51945 11.0934 5.99352 10.5937 8.48939 10.625C10.9853 10.5937 13.4593 11.0934 15.7478 12.0913Z" fill="white"/>
</svg>
